<?xml version="1.0" encoding="UTF-8"?>
<!DOCTYPE svg PUBLIC "-//W3C//DTD SVG 1.1//EN" "http://www.w3.org/Graphics/SVG/1.1/DTD/svg11.dtd">
<svg xmlns="http://www.w3.org/2000/svg" version="1.1" width="1000px" height="1000px" style="shape-rendering:geometricPrecision; text-rendering:geometricPrecision; image-rendering:optimizeQuality; fill-rule:evenodd; clip-rule:evenodd" xmlns:xlink="http://www.w3.org/1999/xlink">
<g><path style="opacity:0.997" fill="#ff0100" d="M 231.5,112.5 C 410.167,112.333 588.834,112.5 767.5,113C 818.045,121.221 851.878,149.387 869,197.5C 870.846,204.065 872.18,210.731 873,217.5C 873.667,397.167 873.667,576.833 873,756.5C 864.979,803.185 839.146,835.685 795.5,854C 783.826,858.001 771.826,860.335 759.5,861C 586.5,861.667 413.5,861.667 240.5,861C 185.318,856.145 148.484,827.645 130,775.5C 128.283,769.248 126.95,762.914 126,756.5C 125.333,576.833 125.333,397.167 126,217.5C 137.12,158.213 172.286,123.213 231.5,112.5 Z"/></g>
<g><path style="opacity:1" fill="#fffdfd" d="M 219.5,288.5 C 241.836,288.333 264.169,288.5 286.5,289C 312.211,324.256 338.045,359.422 364,394.5C 391.833,359.333 419.667,324.167 447.5,289C 469.508,288.167 491.508,288.334 513.5,289.5C 476.816,337.529 439.65,385.196 402,432.5C 400.086,434.748 398.586,437.248 397.5,440C 435.206,491.905 473.039,543.738 511,595.5C 512.559,597.217 513.392,599.217 513.5,601.5C 491.497,601.667 469.497,601.5 447.5,601C 418.854,561.528 389.854,522.361 360.5,483.5C 329.15,522.355 298.15,561.521 267.5,601C 245.492,601.833 223.492,601.666 201.5,600.5C 243.626,546.406 285.626,492.239 327.5,438C 291.364,388.214 255.364,338.38 219.5,288.5 Z"/></g>
<g><path style="opacity:1" fill="#fffdfd" d="M 561.5,287.5 C 619.834,287.333 678.168,287.5 736.5,288C 759.918,289.62 778.085,300.12 791,319.5C 794.909,326.479 797.909,333.813 800,341.5C 800.667,409.5 800.667,477.5 800,545.5C 792.566,577.812 772.399,596.312 739.5,601C 670.5,601.667 601.5,601.667 532.5,601C 524.464,582.764 517.131,564.264 510.5,545.5C 583.167,545.667 655.834,545.5 728.5,545C 735.205,542.959 740.038,538.792 743,532.5C 744.429,521.912 744.929,511.245 744.5,500.5C 682.166,500.667 619.832,500.5 557.5,500C 523.737,493.571 504.237,473.404 499,439.5C 498.051,406.47 498.384,373.47 500,340.5C 509.342,309.644 529.842,291.977 561.5,287.5 Z"/></g>
<g><path style="opacity:1" fill="#ff0000" d="M 569.5,344.5 C 622.501,344.333 675.501,344.5 728.5,345C 736.262,347.097 741.429,351.93 744,359.5C 744.667,382.5 744.667,405.5 744,428.5C 741.5,436.333 736.333,441.5 728.5,444C 675.5,444.667 622.5,444.667 569.5,444C 561.836,441.002 557.003,435.502 555,427.5C 554.333,405.167 554.333,382.833 555,360.5C 557.6,353.07 562.433,347.737 569.5,344.5 Z"/></g>
<g><path style="opacity:1" fill="#fff6f6" d="M 414.5,642.5 C 425.472,641.968 428.472,646.468 423.5,656C 414.406,659.235 410.239,656.068 411,646.5C 412.376,645.295 413.542,643.962 414.5,642.5 Z"/></g>
<g><path style="opacity:1" fill="#fffafa" d="M 494.5,642.5 C 507.256,640.838 519.256,643.004 530.5,649C 532.208,650.51 533.874,652.01 535.5,653.5C 533.157,657.336 530.324,660.669 527,663.5C 520.407,658.873 513.073,656.207 505,655.5C 498.823,654.993 494.156,657.327 491,662.5C 490.041,666.421 491.208,669.588 494.5,672C 505.662,675.541 516.662,679.541 527.5,684C 535.759,690.099 538.926,698.266 537,708.5C 534.936,718.231 529.103,724.397 519.5,727C 502.921,731.187 488.254,727.687 475.5,716.5C 478.484,713.015 481.651,709.682 485,706.5C 494.616,714.415 505.45,716.582 517.5,713C 523.574,707.591 523.907,701.925 518.5,696C 509.424,692.06 500.091,688.727 490.5,686C 477.575,680.582 473.075,671.082 477,657.5C 480.745,650.047 486.578,645.047 494.5,642.5 Z"/></g>
<g><path style="opacity:1" fill="#fffbfb" d="M 269.5,727.5 C 269.833,710.487 269.499,693.487 268.5,676.5C 267.893,676.624 267.56,676.957 267.5,677.5C 261.5,694.167 255.5,710.833 249.5,727.5C 244.456,727.827 239.456,727.494 234.5,726.5C 228.209,710.923 222.209,695.256 216.5,679.5C 216.013,678.527 215.513,677.527 215,676.5C 214.5,693.497 214.333,710.497 214.5,727.5C 209.5,727.5 204.5,727.5 199.5,727.5C 199.5,699.5 199.5,671.5 199.5,643.5C 205.758,643.19 211.924,643.524 218,644.5C 225.617,665.357 233.617,686.024 242,706.5C 250.335,685.658 258.169,664.658 265.5,643.5C 271.5,643.5 277.5,643.5 283.5,643.5C 283.5,671.5 283.5,699.5 283.5,727.5C 278.833,727.5 274.167,727.5 269.5,727.5 Z"/></g>
<g><path style="opacity:1" fill="#fff6f5" d="M 353.5,643.5 C 358.5,643.5 363.5,643.5 368.5,643.5C 368.5,671.5 368.5,699.5 368.5,727.5C 363.5,727.5 358.5,727.5 353.5,727.5C 353.5,699.5 353.5,671.5 353.5,643.5 Z"/></g>
<g><path style="opacity:1" fill="#fffdfc" d="M 375.5,643.5 C 380.167,643.5 384.833,643.5 389.5,643.5C 389.5,651.5 389.5,659.5 389.5,667.5C 394.167,667.5 398.833,667.5 403.5,667.5C 403.5,671.833 403.5,676.167 403.5,680.5C 398.833,680.5 394.167,680.5 389.5,680.5C 389.119,689.568 389.619,698.568 391,707.5C 394.039,713.436 398.872,715.769 405.5,714.5C 405.5,719.167 405.5,723.833 405.5,728.5C 389.642,729.009 379.809,721.676 376,706.5C 375.5,685.503 375.333,664.503 375.5,643.5 Z"/></g>
<g><path style="opacity:1" fill="#fffbfb" d="M 602.5,690.5 C 602.5,694.167 602.5,697.833 602.5,701.5C 586.991,701.17 571.658,701.504 556.5,702.5C 559.378,712.45 566.044,716.617 576.5,715C 580.157,714.163 583.157,712.33 585.5,709.5C 590.695,709.179 595.695,709.513 600.5,710.5C 594.935,722.797 585.268,728.797 571.5,728.5C 556.223,727.714 546.39,720.048 542,705.5C 539.32,677.847 551.82,665.014 579.5,667C 592.085,670.084 599.752,677.918 602.5,690.5 Z"/></g>
<g><path style="opacity:1" fill="#fffdfd" d="M 630.5,666.5 C 633.167,666.5 635.833,666.5 638.5,666.5C 638.5,670.833 638.5,675.167 638.5,679.5C 631.726,679.452 626.892,682.452 624,688.5C 623.5,701.496 623.333,714.496 623.5,727.5C 618.833,727.5 614.167,727.5 609.5,727.5C 609.049,712.428 609.549,697.428 611,682.5C 614.791,673.709 621.291,668.376 630.5,666.5 Z"/></g>
<g><path style="opacity:1" fill="#fffbfb" d="M 764.5,690.5 C 764.5,694.167 764.5,697.833 764.5,701.5C 748.991,701.17 733.658,701.504 718.5,702.5C 721.378,712.45 728.044,716.617 738.5,715C 742.157,714.163 745.157,712.33 747.5,709.5C 752.695,709.179 757.695,709.513 762.5,710.5C 756.935,722.797 747.268,728.797 733.5,728.5C 718.223,727.714 708.39,720.048 704,705.5C 701.32,677.847 713.82,665.014 741.5,667C 754.085,670.084 761.752,677.918 764.5,690.5 Z"/></g>
<g><path style="opacity:1" fill="#fff8f7" d="M 791.5,666.5 C 794.5,666.5 797.5,666.5 800.5,666.5C 800.5,670.833 800.5,675.167 800.5,679.5C 793.511,679.076 788.678,682.076 786,688.5C 785.5,701.496 785.333,714.496 785.5,727.5C 780.5,727.5 775.5,727.5 770.5,727.5C 770.333,714.829 770.5,702.162 771,689.5C 773.13,677.541 779.964,669.875 791.5,666.5 Z"/></g>
<g><path style="opacity:1" fill="#fffcfc" d="M 291.5,667.5 C 296.167,667.5 300.833,667.5 305.5,667.5C 305.333,680.504 305.5,693.504 306,706.5C 311.452,716.062 318.952,717.895 328.5,712C 330.102,710.065 331.269,707.899 332,705.5C 332.5,692.838 332.667,680.171 332.5,667.5C 337.167,667.5 341.833,667.5 346.5,667.5C 346.667,680.837 346.5,694.171 346,707.5C 340.518,724.167 329.018,731 311.5,728C 302.596,726.096 296.429,720.929 293,712.5C 291.566,697.558 291.066,682.558 291.5,667.5 Z"/></g>
<g><path style="opacity:1" fill="#fefffe" d="M 411.5,667.5 C 416.167,667.5 420.833,667.5 425.5,667.5C 425.5,687.5 425.5,707.5 425.5,727.5C 420.833,727.5 416.167,727.5 411.5,727.5C 411.5,707.5 411.5,687.5 411.5,667.5 Z"/></g>
<g><path style="opacity:1" fill="#fffbfb" d="M 641.5,667.5 C 646.544,667.173 651.544,667.506 656.5,668.5C 661.432,681.461 666.265,694.461 671,707.5C 675.864,694.576 680.53,681.576 685,668.5C 690.072,667.529 695.238,667.195 700.5,667.5C 693.57,687.286 686.237,706.953 678.5,726.5C 673.5,727.833 668.5,727.833 663.5,726.5C 655.763,706.953 648.43,687.286 641.5,667.5 Z"/></g>
<g><path style="opacity:1" fill="#ffcdcd" d="M 267.5,677.5 C 267.56,676.957 267.893,676.624 268.5,676.5C 269.499,693.487 269.833,710.487 269.5,727.5C 268.833,710.833 268.167,694.167 267.5,677.5 Z"/></g>
<g><path style="opacity:1" fill="#ff6767" d="M 216.5,679.5 C 215.833,695.5 215.167,711.5 214.5,727.5C 214.333,710.497 214.5,693.497 215,676.5C 215.513,677.527 216.013,678.527 216.5,679.5 Z"/></g>
<g><path style="opacity:1" fill="#ff190e" d="M 586.5,687.5 C 577.014,688.494 567.348,688.827 557.5,688.5C 563.41,679.244 571.41,677.078 581.5,682C 583.373,683.704 585.04,685.537 586.5,687.5 Z"/></g>
<g><path style="opacity:1" fill="#ff190e" d="M 748.5,687.5 C 739.014,688.494 729.348,688.827 719.5,688.5C 725.41,679.244 733.41,677.078 743.5,682C 745.373,683.704 747.04,685.537 748.5,687.5 Z"/></g>
<g><path style="opacity:1" fill="#ff8484" d="M 586.5,687.5 C 587.043,687.56 587.376,687.893 587.5,688.5C 577.341,689.823 567.341,689.823 557.5,688.5C 567.348,688.827 577.014,688.494 586.5,687.5 Z"/></g>
<g><path style="opacity:1" fill="#ff8484" d="M 748.5,687.5 C 749.043,687.56 749.376,687.893 749.5,688.5C 739.341,689.823 729.341,689.823 719.5,688.5C 729.348,688.827 739.014,688.494 748.5,687.5 Z"/></g>
<g><path style="opacity:1" fill="#fff8f8" d="M 436.5,690.5 C 446.5,690.5 456.5,690.5 466.5,690.5C 466.5,694.167 466.5,697.833 466.5,701.5C 456.5,701.5 446.5,701.5 436.5,701.5C 436.5,697.833 436.5,694.167 436.5,690.5 Z"/></g>
<g><path style="opacity:1" fill="#ffb9b8" d="M 602.5,690.5 C 603.483,694.298 603.817,698.298 603.5,702.5C 587.833,702.5 572.167,702.5 556.5,702.5C 571.658,701.504 586.991,701.17 602.5,701.5C 602.5,697.833 602.5,694.167 602.5,690.5 Z"/></g>
<g><path style="opacity:1" fill="#ffb9b8" d="M 764.5,690.5 C 765.483,694.298 765.817,698.298 765.5,702.5C 749.833,702.5 734.167,702.5 718.5,702.5C 733.658,701.504 748.991,701.17 764.5,701.5C 764.5,697.833 764.5,694.167 764.5,690.5 Z"/></g>
<g><path style="opacity:1" fill="#ffa4a4" d="M 585.5,709.5 C 590.68,708.185 596.014,708.185 601.5,709.5C 601.376,710.107 601.043,710.44 600.5,710.5C 595.695,709.513 590.695,709.179 585.5,709.5 Z"/></g>
<g><path style="opacity:1" fill="#ffa4a4" d="M 747.5,709.5 C 752.68,708.185 758.014,708.185 763.5,709.5C 763.376,710.107 763.043,710.44 762.5,710.5C 757.695,709.513 752.695,709.179 747.5,709.5 Z"/></g>
</svg>
